<?xml version="1.0" encoding="UTF-8"?>
<svg version="1.1" viewBox="0 0 1040 1184" width="260" height="296" xmlns="http://www.w3.org/2000/svg">
<path transform="translate(967,256)" d="m0 0 10 1 11 4 10 6 9 12 4 9 1 6v10l-5 12-7 11-8 6-10 4-8 1-12-2-14-7-5-5-7-11-4-15v-7l5-15 9-10 10-6z" fill="#F0AA8E"/>
<path transform="translate(291,916)" d="m0 0h8l12 3 10 6 7 7 5 10 3 11v11l-4 10-6 10-8 6-11 5-12 1-8-1-12-5-10-10-5-7-4-12v-10l4-13 9-13 10-6z" fill="#F0AA8E"/>
<path transform="translate(729,995)" d="m0 0h10l16 4 9 6 7 8 5 11 1 12-2 11-6 10-7 8-11 6-17 3-14-3-9-6-5-5-6-9-4-11v-12l4-11 6-9 7-6 12-6z" fill="#F0AA8E"/>
<path transform="translate(559,79)" d="m0 0h9l12 3 11 7 7 8 5 11 1 6v9l-4 14-6 8-8 7-9 4-16 2-11-2-10-5-9-9-5-10-2-7v-14l4-11 6-8 8-7 12-5z" fill="#F0AA8E"/>
<path transform="translate(499,1008)" d="m0 0h12l9 3 8 4 10 9 7 14 2 9-1 7-3 10-7 11-9 8-5 2-10 2h-12l-10-3-11-8-7-8-4-8-2-9v-8l3-12 6-9 8-7 12-6z" fill="#F0AA8E"/>
<path transform="translate(109,518)" d="m0 0h10l10 3 9 6 6 7 7 14 1 5v10l-5 14-8 11-9 6-14 5-7-1-11-2-10-5-8-9-5-11-2-11 1-11 4-11 4-6 8-7 11-5z" fill="#F0AA8E"/>
<path transform="translate(175,304)" d="m0 0h11l9 2 12 7 7 8 5 11 1 3v16l-5 13-6 9-9 6-12 4h-16l-10-3-11-9-7-10-3-16 1-9 4-11 6-8 9-8 10-4z" fill="#F0AA8E"/>
<path transform="translate(783,119)" d="m0 0h13l10 3 11 8 8 9 5 12 1 10-3 14-7 11-9 7-11 4-9 2-10-1-9-4-6-4-6-5-6-10-4-11v-12l3-11 6-8 7-7 12-6z" fill="#F0AA8E"/>
<path transform="translate(147,739)" d="m0 0h11l15 5 9 7 5 6 5 11 1 5v14l-3 9-7 11-7 6-13 6h-15l-11-4-8-6-7-7-6-12-1-3v-18l4-10 7-9 9-7 7-3z" fill="#F0AA8E"/>
<path transform="translate(933,878)" d="m0 0 15 2 8 4 11 11 5 11 1 4v15l-4 10-6 9-9 8-11 4-13 2-13-3-9-5-6-7-6-10-2-9v-12l4-11 8-11 9-7 10-4z" fill="#F0AA8E"/>
<path transform="translate(340,146)" d="m0 0h8l10 2 10 5 10 10 5 10 1 5v10l-5 15-8 10-11 8-9 3h-15l-13-5-8-6-4-5-6-12-1-3v-13l4-11 6-9 8-7 9-5z" fill="#F0AA8E"/>
<path transform="translate(390,829)" d="m0 0 12 3 6 4 7 7 4 9v13l-4 10-6 7-8 5-13 1-10-3-9-6-4-5-4-10v-11l3-9 7-8 10-5z" fill="#EF5A63"/>
<path transform="translate(846,802)" d="m0 0h12l10 4 6 5 6 10 1 5v10l-3 9-7 9-10 5-4 1h-11l-10-4-8-7-4-7-1-4v-12l4-10 10-10z" fill="#EF5A63"/>
<path transform="translate(303,381)" d="m0 0h8l9 3 6 4 6 8 3 7v14l-5 10-7 7-8 4-4 1h-11l-10-4-8-8-4-8-1-3v-12l4-10 5-6 12-6z" fill="#EF5C64"/>
<path transform="translate(530,892)" d="m0 0h14l7 3 8 6 5 8 2 6v11l-3 9-8 9-9 4-6 1h-10l-8-3-8-7-6-12v-14l5-10 9-8z" fill="#EF5962"/>
<path transform="translate(242,530)" d="m0 0h12l10 4 7 6 5 10 1 4v9l-4 11-7 9-7 4-13 1-10-2-6-4-6-7-4-8-1-11 2-8 5-8 8-7z" fill="#EF5A62"/>
<path transform="translate(698,882)" d="m0 0h11l10 4 7 5 6 12 1 10-3 10-8 10-8 5-3 1h-14l-9-3-8-7-5-10-1-4v-10l6-12 8-7z" fill="#EF5A62"/>
<path transform="translate(569,204)" d="m0 0 11 1 8 3 8 7 4 8 2 8-1 9-5 10-7 7-13 5-11-1-10-4-7-8-5-11v-8l3-10 5-8 9-6z" fill="#EF5A62"/>
<path transform="translate(741,244)" d="m0 0h10l10 3 9 8 5 10 1 4v9l-4 10-8 9-6 3-9 2-9-1-12-6-7-8-3-9v-12l4-10 8-7z" fill="#EF5A63"/>
<path transform="translate(421,263)" d="m0 0 10 1 12 6 6 8 3 9v11l-7 14-8 6-4 2-10 1-12-2-6-4-7-8-4-9v-11l3-8 4-6 8-6 7-3z" fill="#EF5962"/>
<path transform="translate(873,347)" d="m0 0h9l11 3 9 7 5 10 1 3v13l-5 10-5 6-10 5h-14l-10-4-8-7-5-10-1-11 3-10 6-8 7-5z" fill="#EF5A63"/>
<path transform="translate(278,697)" d="m0 0h10l10 4 8 7 6 12v13l-5 10-9 8-8 3h-15l-8-4-8-9-4-9v-12l4-9 4-6 8-6z" fill="#EF5962"/>
<path transform="translate(1037,695)" d="m0 0h3v33l-7-1-1-2-2-18v-6z" fill="#EF6169"/>
</svg>
