<?xml version="1.0" encoding="UTF-8"?>
<svg version="1.1" viewBox="0 0 2048 721" width="1200" height="423" xmlns="http://www.w3.org/2000/svg">
<path transform="translate(0)" d="m0 0h2048v721h-2048z" fill="#FDFEFD"/>
<path transform="translate(1223,308)" d="m0 0h31l1 1 1 10-3 3-5 2 1 21h28v-21l-6-4 1-11 1-1h31l1 4v8l-6 4v62l6 4v8l-1 4h-31l-2-6v-5l5-4h2v-28h-30l1 27 7 5-1 9-1 2h-31l-2-8 1-4 6-4 1-62-5-2-3-3 1-9z" fill="#27064B"/>
<path transform="translate(1493,332)" d="m0 0h8l4 1 1 5 9-4 4-1h11l9 3 5 4 4 7 2 9v19l-3 10-5 8-7 6-10 4h-18v10l9 5 1 4-2 7h-34l-1-11 7-4v-64l-7-5 1-10 4-2z" fill="#27064B"/>
<path transform="translate(608,308)" d="m0 0h19l14 40 13 37 8 6-1 9-1 2h-31l-1-1-1-10 5-4-1-7-1-5-27 1-3 10 6 4v7l-2 5h-30l-1-4v-8l7-4h2l3-11 22-66z" fill="#27064B"/>
<path transform="translate(842,304)" d="m0 0h21v33l13-4h12l9 3 5 6 3 9 1 35 6 5 1 3-1 7-1 1h-30l-2-6v-5l6-4v-34l-4-4h-11l-7 2 1 36 6 4v8l-1 3h-31l-1-3v-8l6-4v-66l-6-4v-8l1-4z" fill="#27064B"/>
<path transform="translate(1351,333)" d="m0 0h14l10 3 6 4 6 8 3 13v11l-3 13-6 9-8 6-9 3h-16l-11-4-7-6-5-12-1-16 3-14 5-8 7-6 7-3z" fill="#27064B"/>
<path transform="translate(1007,334)" d="m0 0h30l1 1 1 10-4 3h-2l10 27 2 8h1l5-17 5-15v-2l-5-3-1-3 1-8 1-1h29l1 1 1 10-9 6-27 63-6 10-5 4-4 2h-15l-6-3-2-2v-10l3-7h11l3 9 4-1 5-10v-6l-10-23-11-26-9-6 1-10z" fill="#27064B"/>
<path transform="translate(953,333)" d="m0 0h15l10 3 7 6 2 5 1 7v32l7 2v12l-5 2-5 1h-10l-2-6-4 2-5 3-4 1h-14l-9-4-6-7-1-3v-11l3-6 7-6 7-2 21-1v-7l-3-7-2-1h-12l-2 8h-14l-2-6v-10l8-4z" fill="#27064B"/>
<path transform="translate(1119,333)" d="m0 0h15l10 3 5 4 3 5 1 5 1 35 6 3 1 2v9l-5 3-5 1h-10l-2-4v-3l-10 6-4 1h-14l-10-5-5-7-1-4v-7l3-8 6-5 8-3h22l-1-11-5-5-12-1-1 8-1 1h-13l-2-4-1-10 1-3 10-4z" fill="#27064B"/>
<path transform="translate(1706,333)" d="m0 0h15l10 3 6 5 3 8 1 36 6 3 1 1v10l-5 3-5 1h-10l-2-4v-3l-10 6-4 1h-13l-8-3-5-4-3-5-1-10 3-9 6-5 8-3h22l-1-11-5-5-12-1-1 9h-14l-2-4v-12l5-3 9-3z" fill="#27064B"/>
<path transform="translate(1834,333)" d="m0 0h15l14 3 1 1v7l-2 8-2 1h-10l-3-6-3-1h-8l-4 2v5l6 4 17 5 7 4 4 5 2 6-1 11-6 9-7 4-7 2h-20l-12-3-2-2 1-11 2-4h12l2 7 14-1 4-2 1-5-3-3-23-8-7-6-2-4-1-10 3-8 8-7z" fill="#27064B"/>
<path transform="translate(788,333)" d="m0 0h15l13 3 2 2-1 10-1 4-2 1h-10l-3-6-3-1h-8l-4 2v5l6 4 17 5 8 5 4 7v13l-3 6-8 7-9 3h-20l-12-3-2-2v-7l3-8h12l2 6h14l5-4-1-5-11-4-12-4-6-4-4-5-2-5v-8l4-9 9-6z" fill="#27064B"/>
<path transform="translate(1429,333)" d="m0 0h15l14 3 1 1v10l-3 6h-10l-2-2-1-4-3-1h-9l-4 1 1 7 9 4 16 5 6 4 4 8v11l-4 8-7 6-9 3h-20l-12-3-2-1v-9l2-7h12l3 6h13l5-3v-5l-5-3-18-6-8-5-4-8v-10l4-8 5-4 6-3z" fill="#27064B"/>
<path transform="translate(682,304)" d="m0 0h20l1 7 1 76 6 4-1 10-1 1h-30l-2-7 1-5 6-4v-66l-5-2-2-2 1-10z" fill="#27064B"/>
<path transform="translate(1768,304)" d="m0 0h20l1 83 6 4v8l-1 3h-31l-1-3v-8l6-4v-66l-6-4v-8l1-4z" fill="#27064B"/>
<path transform="translate(1634,317)" d="m0 0h11l-1 17h20v11l-19 1v33l1 7 1 1h15l3 7-1 4-13 4h-14l-7-3-4-7-1-45-6-2-1-8 7-5h2l2-9z" fill="#27064B"/>
<path transform="translate(717,334)" d="m0 0h30l1 4v7l-8 5-5 3-10 12 4 7 8 10 4 4 9 4 1 5-1 7h-22l-11-15-12-18 1-5 9-12 3-6h-2v-8z" fill="#27064B"/>
<path transform="translate(1581,332)" d="m0 0h14l1 55 6 4 1 3-2 8h-31l-1-11 4-3h3l-1-39-6-4 1-11z" fill="#27064B"/>
<path transform="translate(1352,347)" d="m0 0h9l5 3 4 9v19l-4 8-4 3-6 1-7-3-4-7-1-5v-16l3-8z" fill="#FCF9F7"/>
<path transform="translate(255,482)" d="m0 0h7l7 3 5 5 3 8-1 8-6 8-6 3h-7l-8-4-5-6-2-5 1-9 4-6 5-4z" fill="#F0C2B4"/>
<path transform="translate(207,221)" d="m0 0h7l8 4 5 8v11l-5 8-8 4h-8l-8-5-4-6-1-10 4-8 7-5z" fill="#F1C3B5"/>
<path transform="translate(544,201)" d="m0 0 9 1 6 4 5 6 1 3v9l-6 8-5 4h-10l-6-3-6-7-1-3v-10l4-7z" fill="#F1C3B5"/>
<path transform="translate(442,516)" d="m0 0h10l6 3 6 7 1 3v7l-3 6-7 6-5 2-10-1-7-6-3-6v-9l5-8z" fill="#F1C3B5"/>
<path transform="translate(528,466)" d="m0 0h8l6 3 5 6 2 5-1 9-6 8-5 3-8 1-9-4-5-7-1-9 3-7 5-5z" fill="#F1C3B5"/>
<path transform="translate(180,312)" d="m0 0 9 2 6 5 3 7v8l-3 6-7 6-5 2-9-2-5-3-4-6-1-3v-8l4-8 8-5z" fill="#F1C3B5"/>
<path transform="translate(368,126)" d="m0 0h11l7 4 4 6 1 3v8l-3 6-6 5-5 2h-7l-6-3-6-6-1-3v-12l5-7z" fill="#F1C3B5"/>
<path transform="translate(193,407)" d="m0 0h10l6 3 5 6 2 5v7l-4 8-7 5-8 1-8-4-6-7-1-2v-10l3-6 6-5z" fill="#F1C3B5"/>
<path transform="translate(346,521)" d="m0 0 8 1 6 3 5 6 2 6-1 7-4 6-6 5-9 1-10-5-4-5-1-3v-10l4-6 5-4z" fill="#F1C3B5"/>
<path transform="translate(464,143)" d="m0 0h12l8 6 4 8v7l-4 7-5 4-5 2h-8l-6-4-5-6-2-6 1-8 4-6z" fill="#F1C3B5"/>
<path transform="translate(1514,348)" d="m0 0h10l5 4 2 9v9l-3 12-4 5-8 3-9-1-1-1v-35l3-3z" fill="#FBF5F4"/>
<path transform="translate(276,154)" d="m0 0h8l8 4 5 8v9l-5 8-8 5h-9l-9-6-3-5v-11l4-6 6-5z" fill="#F1C3B5"/>
<path transform="translate(298,445)" d="m0 0 7 1 6 5 2 8-3 7-6 5h-7l-7-4-3-5v-9l5-6z" fill="#E1888A"/>
<path transform="translate(261,254)" d="m0 0h7l5 3 4 8-1 7-4 5-6 3-7-1-7-6-1-3v-7l3-5 4-3z" fill="#E1898A"/>
<path transform="translate(237,317)" d="m0 0 7 1 6 5 2 5-1 8-4 5-3 2h-9l-5-3-3-5-1-6 3-7 5-4z" fill="#E18889"/>
<path transform="translate(495,433)" d="m0 0 7 1 6 5 1 2v10l-5 6-4 2h-7l-6-4-3-4v-8l3-5 5-4z" fill="#E18889"/>
<path transform="translate(432,467)" d="m0 0 6 1 6 4 2 4v8l-7 8-2 1-9-1-6-5-2-9 3-6 5-4z" fill="#E1888A"/>
<path transform="translate(372,179)" d="m0 0h10l5 3 3 5v8l-4 6-5 3h-7l-6-3-3-5v-10l5-6z" fill="#E1888A"/>
<path transform="translate(357,472)" d="m0 0h10l5 3 3 6v7l-3 5-4 3-9 1-5-3-4-5-1-6 3-7z" fill="#E18789"/>
<path transform="translate(447,196)" d="m0 0h9l5 3 4 8-1 7-8 7h-7l-7-4-3-6 1-9 5-5z" fill="#E1888A"/>
<path transform="translate(310,204)" d="m0 0h8l6 4 3 9-3 7-6 5h-9l-7-6-1-3v-7l3-5z" fill="#E18789"/>
<path transform="translate(503,240)" d="m0 0h10l5 3 3 6v7l-4 6-4 3h-7l-7-4-3-5v-9l5-6z" fill="#E18789"/>
<path transform="translate(249,389)" d="m0 0h9l6 4 3 6-1 8-5 5-3 2h-8l-7-6-1-2v-10l5-6z" fill="#E1888A"/>
<path transform="translate(1582,304)" d="m0 0h8l5 3 2 4v7l-4 5-9 2-7-3-3-5 1-8 4-4z" fill="#27064B"/>
<path transform="translate(616,326)" d="m0 0h1l4 19 5 16v2h-19l2-10 5-18 1-8z" fill="#FAEFEC"/>
<path transform="translate(955,374)" d="m0 0h13l1 1v10l-5 4-8 1-5-3-2-3 1-7z" fill="#FAF0EE"/>
<path transform="translate(1707,374)" d="m0 0h14v12l-8 4-7-1-4-4v-7z" fill="#FBF4F3"/>
<path transform="translate(1120,374)" d="m0 0h14v12l-5 3-7 1-5-2-2-3v-7z" fill="#FBF4F2"/>
</svg>
